<svg width="20" height="21" viewBox="0 0 20 21" fill="none" xmlns="http://www.w3.org/2000/svg">
<path fill-rule="evenodd" clip-rule="evenodd" d="M10 18.5C12.1217 18.5 14.1566 17.6571 15.6569 16.1569C17.1571 14.6566 18 12.6217 18 10.5C18 8.37827 17.1571 6.34344 15.6569 4.84315C14.1566 3.34285 12.1217 2.5 10 2.5C7.87827 2.5 5.84344 3.34285 4.34315 4.84315C2.84285 6.34344 2 8.37827 2 10.5C2 12.6217 2.84285 14.6566 4.34315 16.1569C5.84344 17.6571 7.87827 18.5 10 18.5ZM10 20.5C15.523 20.5 20 16.023 20 10.5C20 4.977 15.523 0.5 10 0.5C4.477 0.5 0 4.977 0 10.5C0 16.023 4.477 20.5 10 20.5Z" fill="#212121"/>
<path fill-rule="evenodd" clip-rule="evenodd" d="M10 4.5C10.2652 4.5 10.5196 4.60536 10.7071 4.79289C10.8946 4.98043 11 5.23478 11 5.5V10.086L13.207 12.293C13.3892 12.4816 13.49 12.7342 13.4877 12.9964C13.4854 13.2586 13.3802 13.5094 13.1948 13.6948C13.0094 13.8802 12.7586 13.9854 12.4964 13.9877C12.2342 13.99 11.9816 13.8892 11.793 13.707L9.586 11.5C9.2109 11.125 9.00011 10.6164 9 10.086V5.5C9 5.23478 9.10536 4.98043 9.29289 4.79289C9.48043 4.60536 9.73478 4.5 10 4.5Z" fill="#212121"/>
</svg>
