<svg width="1919" height="876" viewBox="0 0 1919 876" fill="none" xmlns="http://www.w3.org/2000/svg">
<g clip-path="url(#clip0)">
<rect width="1919" height="876" fill="white"/>
<path opacity="0.30385" d="M741.948 -261.994C810.164 -246.718 841.24 -219.002 851.614 -183.111C857.015 -164.427 856.767 -143.636 853.367 -121.434C849.966 -99.2321 843.399 -75.5475 836.109 -51.0603C834.526 -45.7435 832.909 -40.389 831.282 -35.003C817.908 9.28497 803.891 55.7037 802.841 100.776C801.667 151.239 816.755 199.966 867.373 241.976C918.378 284.308 946.184 325.614 962.047 365.511C977.903 405.388 981.803 443.802 985.077 480.255C985.208 481.704 985.337 483.151 985.466 484.595C988.582 519.484 991.53 552.49 1004.26 583.453C1017.48 615.643 1041.31 645.683 1087.09 673.186C1178.91 728.358 1229.64 748.13 1290.31 754.166C1320.68 757.188 1353.56 756.77 1395.38 755.591C1402.47 755.391 1409.82 755.169 1417.46 754.939C1454.83 753.812 1499.08 752.476 1553.83 752.476C1620.08 752.476 1671.05 780.385 1713.37 815.181C1734.52 832.574 1753.52 851.7 1771.19 869.925C1773.68 872.491 1776.14 875.038 1778.57 877.56C1793.45 892.969 1807.41 907.428 1821.02 919.329C1836.86 933.181 1852.11 943.475 1867.64 947.753C1883.1 952.016 1898.91 950.329 1915.96 940.052C1933.05 929.747 1951.4 910.793 1971.81 880.475C1992.22 850.168 2014.65 808.572 2039.93 753.062C2140.98 531.166 2141 277.266 2115.72 78.762C2103.08 -20.4776 2084.12 -105.842 2068.32 -166.395C2060.42 -196.671 2053.32 -220.742 2048.18 -237.243C2045.62 -245.493 2043.54 -251.85 2042.11 -256.143C2041.4 -258.29 2040.84 -259.92 2040.47 -261.014C2040.37 -261.304 2040.28 -261.556 2040.21 -261.771L2040.13 -261.994H741.948ZM483.051 -248.363C505.799 -253.732 528.376 -258.348 550.636 -261.994H-188.582C-188.72 -261.869 -188.908 -261.696 -189.141 -261.476C-189.684 -260.964 -190.471 -260.196 -191.436 -259.18C-193.366 -257.148 -196.006 -254.128 -198.829 -250.191C-204.478 -242.313 -210.848 -230.781 -213.757 -216.152C-219.558 -186.98 -211.654 -145.141 -155.832 -95.0355C-142.072 -82.6846 -122.613 -76.8503 -98.3581 -76.0923C-74.1045 -75.3342 -45.1645 -79.656 -12.5722 -87.5035C47.0426 -101.858 118.669 -127.953 195.852 -156.072C203.07 -158.702 210.336 -161.349 217.646 -164.006C303.09 -195.065 394.416 -227.443 483.051 -248.363ZM721.187 -263.994C676.698 -271.294 628.436 -270.431 578.133 -263.994H721.187Z" stroke="black" stroke-opacity="0.5" stroke-width="2"/>
<path opacity="0.30385" d="M752.161 -201.367C816.21 -188.001 849.665 -166.542 866.268 -139.423C883.275 -111.644 882.513 -78.0491 879.105 -41.5295C878.559 -35.6747 877.944 -29.7439 877.323 -23.7478C874.065 7.70703 870.62 40.9597 875.838 74.4764C882.045 114.344 900.515 154.585 946.23 192.501C992.131 230.572 1012.81 271.482 1020.57 312.986C1028.33 354.466 1023.17 396.513 1017.48 436.835C1017.11 439.488 1016.73 442.134 1016.35 444.772C1011.01 482.25 1005.91 518.067 1011.04 550.5C1016.53 585.163 1033.72 615.966 1074.94 640.721C1157.51 690.298 1234.12 690.31 1319.82 677.902C1343 674.545 1366.85 670.278 1391.66 665.839C1458.56 653.87 1532.46 640.649 1619.09 640.649C1678.61 640.649 1724.38 667.838 1762.37 702.296C1781.36 719.524 1798.42 738.576 1814.28 756.964C1817.75 760.986 1821.16 764.975 1824.53 768.906C1836.54 782.958 1847.93 796.269 1859.05 807.677C1873.29 822.279 1887.05 833.711 1901.09 839.565C1915.1 845.407 1929.39 845.701 1944.77 837.995C1960.18 830.274 1976.7 814.505 1995.07 788.139C2013.44 761.779 2033.63 724.868 2056.39 674.919C2147.39 475.231 2116.66 256.128 2063.13 86.8917C2036.37 2.28076 2003.93 -69.8458 1978.17 -120.819C1965.29 -146.306 1954.08 -166.503 1946.09 -180.328C1942.1 -187.24 1938.91 -192.559 1936.72 -196.149C1935.63 -197.944 1934.78 -199.307 1934.21 -200.22C1934.04 -200.497 1933.89 -200.732 1933.77 -200.926L1933.56 -201.252L1933.49 -201.367H752.161ZM-73.3492 -202.367H741.975C624.839 -224.604 472.863 -223.056 330.219 -221.603C309.949 -221.396 289.868 -221.192 270.102 -221.057C189.669 -220.512 114.457 -221.133 53.0442 -227.548C22.3372 -230.756 -4.93494 -235.414 -27.693 -242.104C-50.4461 -248.793 -68.7226 -257.525 -81.4064 -268.902C-94.0061 -280.204 -103.321 -287.611 -109.978 -291.93C-113.308 -294.09 -115.952 -295.464 -117.995 -296.172C-120.06 -296.886 -121.404 -296.882 -122.222 -296.459C-122.998 -296.059 -123.462 -295.188 -123.529 -293.701C-123.596 -292.216 -123.255 -290.237 -122.549 -287.839C-121.141 -283.053 -118.329 -276.754 -114.715 -269.721C-107.491 -255.663 -97.1149 -238.773 -88.5388 -225.39C-84.2519 -218.7 -80.417 -212.889 -77.6538 -208.751C-76.2723 -206.682 -75.1587 -205.031 -74.3907 -203.898C-74.0066 -203.331 -73.709 -202.894 -73.5074 -202.599C-73.4455 -202.508 -73.3927 -202.43 -73.3492 -202.367Z" stroke="black" stroke-opacity="0.5"/>
<path opacity="0.30385" d="M868.522 -147.683C888.375 -137.801 901.624 -126.049 910.292 -112.756C926.36 -88.1159 926.523 -58.4119 924.324 -26.2484C923.956 -20.8578 923.521 -15.3969 923.081 -9.87482C920.89 17.6461 918.577 46.6849 923.761 76.0845C929.972 111.309 946.959 147.053 987.993 181.081C1070.04 249.12 1171.87 237.68 1272.19 220.193C1281.17 218.629 1290.14 217.015 1299.07 215.407C1340.01 208.042 1380.35 200.784 1418.5 198.769C1465 196.314 1508.41 201.635 1545.86 224.119C1583.4 246.658 1599.03 280.708 1604.76 318.94C1609.54 350.917 1607.41 385.924 1605.35 419.652C1604.95 426.181 1604.56 432.662 1604.21 439.063C1602.1 478.651 1602.05 515.131 1615.7 541.721C1622.5 554.973 1632.72 565.777 1647.83 573.281C1662.97 580.795 1683.07 585.025 1709.68 585.025C1801.59 585.025 1842.01 651.285 1870.77 698.426C1875.64 706.406 1880.17 713.838 1884.56 720.309C1892.2 731.55 1899.3 739.75 1906.86 743.134C1910.61 744.808 1914.47 745.303 1918.6 744.387C1922.75 743.467 1927.24 741.107 1932.19 736.959C1942.12 728.648 1953.72 713.325 1967.99 688.764C1982.24 664.224 1999.11 630.547 2019.59 585.611C2101.42 406.052 2101.44 222.587 2080.97 83.9724C2070.73 14.6698 2055.38 -43.4056 2042.59 -84.1522C2036.2 -104.525 2030.44 -120.564 2026.29 -131.507C2024.21 -136.979 2022.53 -141.176 2021.37 -144.004C2020.79 -145.418 2020.35 -146.489 2020.04 -147.206C2019.97 -147.388 2019.9 -147.547 2019.84 -147.683H868.522ZM859.47 -149.683C844.003 -156.387 824.919 -162.134 801.414 -166.776C712.815 -184.276 580.308 -197.122 443.465 -210.388C393.664 -215.216 343.289 -220.1 294.247 -225.284C202.375 -234.995 115.193 -245.76 45.2972 -259.188C10.3499 -265.902 -20.2994 -273.286 -45.0638 -281.546C-69.8022 -289.797 -88.7734 -298.954 -100.273 -309.268C-105.922 -314.334 -110.739 -318.119 -114.807 -320.774C-118.886 -323.437 -122.157 -324.927 -124.72 -325.467C-127.261 -326.001 -128.999 -325.585 -130.203 -324.577C-131.445 -323.536 -132.318 -321.702 -132.74 -318.983C-133.587 -313.537 -132.532 -305.199 -130.09 -294.961C-127.656 -284.763 -123.88 -272.81 -119.387 -260.201C-110.403 -234.984 -98.5821 -207.216 -89.0027 -185.742C-84.2139 -175.007 -79.9871 -165.85 -76.9577 -159.377C-75.443 -156.14 -74.2278 -153.575 -73.3914 -151.819C-73.1243 -151.258 -72.8958 -150.78 -72.7086 -150.389C-72.6026 -150.168 -72.5099 -149.974 -72.4308 -149.81C-72.4096 -149.765 -72.3893 -149.723 -72.3701 -149.683H859.47Z" stroke="black" stroke-opacity="0.5" stroke-width="2"/>
<path d="M2020.37 -147.127C2020.25 -147.59 2020.17 -147.943 2020.11 -148.183H1047.53C1039.86 -132.306 1029.92 -115.495 1019.5 -98.1243C1018.47 -96.4119 1017.44 -94.694 1016.4 -92.9711C994.461 -56.4619 971.14 -17.6592 962.384 20.2625C957.803 40.1046 957.217 59.6788 962.892 78.5377C968.566 97.3929 980.511 115.573 1001.06 132.611C1042.15 166.688 1095.49 178.185 1154.79 177.613C1214.09 177.042 1279.28 164.403 1344.01 150.273C1355.23 147.823 1366.44 145.328 1377.6 142.844C1430.81 131.003 1482.94 119.4 1530.37 114.03C1587.75 107.533 1638.36 110.139 1675.72 132.568C1713.09 155.004 1729.16 188.499 1733.98 227.016C1738.8 265.505 1732.4 309.043 1724.82 351.639C1723.68 358.078 1722.5 364.495 1721.34 370.871C1714.8 406.703 1708.49 441.206 1708.54 470.809C1708.59 505.666 1717.44 533.556 1744.91 548.812C1800.26 579.56 1845.73 591.611 1890.95 580.65C1936.2 569.683 1981.3 535.656 2035.83 473.964C2062.98 443.245 2075.63 389.035 2079.27 324.857C2082.91 260.711 2077.54 186.729 2068.76 116.584C2059.98 46.4429 2047.8 -19.845 2037.8 -68.5988C2032.81 -92.9752 2028.36 -112.967 2025.16 -126.865C2023.56 -133.813 2022.27 -139.238 2021.39 -142.926C2020.94 -144.77 2020.6 -146.179 2020.37 -147.127ZM-72.7837 -149.612C-72.7263 -149.441 -72.6781 -149.298 -72.6395 -149.183H1046.9C1047.51 -150.461 1048.11 -151.733 1048.7 -152.999C1056.58 -170.106 1061.53 -185.994 1061.32 -200.224C1061.11 -214.423 1055.76 -226.998 1042.96 -237.525C1030.13 -248.071 1009.8 -256.579 979.615 -262.542C919.211 -274.473 828.862 -279.96 725.866 -282.746C651.691 -284.752 570.978 -285.357 490.193 -285.962C458.812 -286.198 427.42 -286.433 396.395 -286.751C285.515 -287.885 179.337 -290.071 95.2047 -297.061C53.1394 -300.555 16.5706 -305.252 -12.3261 -311.623C-41.1972 -317.989 -62.4992 -326.043 -73.9465 -336.31C-79.602 -341.382 -84.5336 -345.074 -88.8094 -347.549C-93.0889 -350.025 -96.684 -351.266 -99.6722 -351.47C-102.643 -351.673 -105.024 -350.853 -106.919 -349.177C-108.829 -347.488 -110.285 -344.896 -111.319 -341.494C-113.388 -334.682 -113.716 -324.796 -112.795 -312.999C-111.875 -301.217 -109.714 -287.581 -106.842 -273.298C-101.099 -244.734 -92.5201 -213.621 -85.3753 -189.645C-81.8033 -177.658 -78.5904 -167.456 -76.2706 -160.252C-75.1107 -156.65 -74.1741 -153.798 -73.5276 -151.846C-73.2043 -150.87 -72.9536 -150.119 -72.7837 -149.612Z" fill="#FFE8B3" stroke="#FFC94D"/>
</g>
<defs>
<clipPath id="clip0">
<rect width="1919" height="876" fill="white"/>
</clipPath>
</defs>
</svg>
