<svg width="566" height="88" viewBox="0 0 566 88" fill="none" xmlns="http://www.w3.org/2000/svg">
<g clip-path="url(#clip0)">
<path d="M467.94 16.74H484.71V26.37H484.92C487.46 19.37 493.35 15.67 500.78 15.67C501.672 15.6522 502.56 15.7979 503.4 16.1V32.55H498.24C489.7 32.55 485.24 38.69 485.24 45.55V71.69H467.94V16.74ZM520.94 48.53C521.24 56.05 525.4 61.03 532.73 61.03C536.89 61.03 540.96 59.03 542.59 55.03H558.75C555.59 67.73 544.31 73.23 532.52 73.23C515.34 73.23 503.65 62.43 503.65 44.02C503.65 27.18 516.57 15.1 532.12 15.1C551.02 15.1 560.48 29.93 559.67 48.56L520.94 48.53ZM542.38 38.47C542.08 32.33 537.91 27.26 532.12 27.26C526.01 27.26 521.95 31.8 520.94 38.47H542.38ZM412 33.6C412.3 26.4 415.55 21.74 420.23 18.89C424.91 16.04 431 15.07 437 15.07C449.5 15.07 461.61 17.93 461.61 33.49V71.62H445.41C445.41 71.62 445.41 68.22 445.26 66.43C440.79 71.31 434.18 73.2 427.88 73.2C417.82 73.2 409.88 67.91 409.88 56.57C409.88 38.68 428.58 40.06 440.58 37.57C443.53 36.93 445.16 35.88 445.16 32.49C445.16 28.36 440.38 26.76 436.82 26.76C432.04 26.76 429 28.99 428.18 33.65L412 33.6ZM434.36 62.08C442.59 62.08 445.36 57.22 444.93 45.89C442.5 47.47 438.02 47.79 434.27 48.89C430.52 49.99 427.15 51.54 427.15 55.89C427.15 60.24 430.5 62.13 434.36 62.13V62.08ZM396.29 71.67H378.83L370.49 35.14H370.29L362.05 71.67H344.57L328.09 16.67H345.58L354.43 52.24H354.63L362.15 16.67H378.62L386.34 52.13H386.55L395.18 16.67H412.77L396.29 71.67ZM290.43 16.67H307.2V26.3H307.41C309.94 19.3 315.84 15.6 323.26 15.6C324.154 15.5878 325.044 15.7299 325.89 16.02V32.47H320.72C312.18 32.47 307.72 38.6 307.72 45.47V71.62H290.45L290.43 16.67ZM247.89 48.53C248.2 56.05 252.35 61.03 259.68 61.03C263.85 61.03 267.91 59.03 269.54 55.03H285.7C282.54 67.73 271.26 73.23 259.48 73.23C242.3 73.23 230.61 62.43 230.61 44.02C230.61 27.18 243.52 15.1 259.07 15.1C277.98 15.1 287.43 29.93 286.62 48.56L247.89 48.53ZM269.34 38.47C269.04 32.33 264.86 27.26 259.07 27.26C252.97 27.26 248.92 31.8 247.89 38.47H269.34ZM172.68 16.66H189.15V23H189.36C190.879 20.5241 193.019 18.4886 195.568 17.0958C198.117 15.7029 200.986 15.0011 203.89 15.06C220.46 15.06 227.47 29.89 227.47 45.34C227.47 59.64 220.16 73.19 205.21 73.19C198.71 73.19 193.73 70.65 190.16 65.68H190V87.56H172.68V16.66ZM189.36 43.56C189.36 53.19 192 59.43 199.82 59.43C207.64 59.43 210.2 51.07 210.2 43.56C210.2 36.56 207.56 28.83 199.93 28.83C195.25 28.83 189.36 32.23 189.36 43.56ZM114.24 16.66H130.7V23H130.91C132.433 20.5254 134.575 18.4912 137.125 17.0986C139.675 15.706 142.545 15.0033 145.45 15.06C162 15.07 169 29.9 169 45.35C169 59.65 161.67 73.2 146.73 73.2C140.22 73.2 135.24 70.66 131.68 65.69H131.49V87.56H114.24V16.66ZM130.91 43.56C130.91 53.19 133.56 59.43 141.38 59.43C149.2 59.43 151.76 51.07 151.76 43.56C151.76 36.56 149.11 28.83 141.49 28.83C136.81 28.83 130.91 32.23 130.91 43.56V43.56ZM108 71.62H91.17V64.1H91C89.294 66.8446 86.9256 69.1163 84.1123 70.7064C81.2991 72.2965 78.1312 73.154 74.9 73.2C59.76 73.2 55.38 64.1 55.38 49.7V16.7H72.67V48.53C72.67 55.84 75.67 58.38 81.21 58.38C84.97 58.38 90.66 55.84 90.66 46.1V16.66H108V71.62ZM55.54 16.84H37.54V71.69H18.61V16.84H0V0H55.54V16.84Z" fill="white"/>
<path d="M554.73 5.88999C554.736 4.88655 555.039 3.90736 555.601 3.07591C556.162 2.24446 556.958 1.59802 557.887 1.21812C558.815 0.838224 559.836 0.741894 560.819 0.941281C561.803 1.14067 562.705 1.62684 563.413 2.33847C564.12 3.0501 564.601 3.95531 564.794 4.93991C564.988 5.9245 564.886 6.94438 564.5 7.87088C564.115 8.79738 563.464 9.58901 562.629 10.1459C561.794 10.7028 560.813 11 559.81 11C559.143 11.0013 558.481 10.8708 557.864 10.616C557.247 10.3612 556.687 9.98701 556.215 9.51503C555.743 9.04304 555.369 8.4825 555.114 7.86558C554.859 7.24865 554.729 6.58747 554.73 5.91999V5.88999ZM559.81 11.74C560.963 11.7439 562.091 11.4059 563.052 10.7686C564.013 10.1312 564.764 9.22328 565.208 8.15951C565.653 7.09574 565.773 5.92393 565.552 4.79226C565.331 3.66059 564.779 2.61988 563.966 1.80175C563.154 0.983623 562.117 0.42481 560.987 0.195979C559.857 -0.0328527 558.684 0.0785759 557.617 0.516173C556.551 0.953771 555.638 1.69788 554.994 2.65441C554.35 3.61094 554.004 4.73693 554 5.88999C554 6.65512 554.151 7.41275 554.444 8.11952C554.737 8.82628 555.167 9.46832 555.708 10.0089C556.25 10.5495 556.892 10.9779 557.6 11.2698C558.307 11.5617 559.065 11.7113 559.83 11.71L559.81 11.74ZM558.59 5.56999H559.59C560.4 5.56999 561.13 5.56999 561.13 4.56999C561.13 3.56999 560.47 3.67999 559.85 3.67999H558.63L558.59 5.56999ZM557.63 2.99999H559.94C561.34 2.99999 562.01 3.53999 562.01 4.68999C562.022 4.89959 561.991 5.1095 561.919 5.30649C561.846 5.50348 561.733 5.68328 561.588 5.83454C561.442 5.98581 561.267 6.10526 561.073 6.18537C560.878 6.26547 560.67 6.3045 560.46 6.29999L562.15 8.90999H561.15L559.53 6.36999H558.58V8.87999H557.64L557.63 2.99999Z" fill="white"/>
</g>
<defs>
<clipPath id="clip0">
<rect width="565.63" height="87.56" fill="white"/>
</clipPath>
</defs>
</svg>
