<svg xmlns="http://www.w3.org/2000/svg" viewBox="0 0 565.63 87.56"><defs><style>.cls-1{fill:#1d1d1b;}</style></defs><title>tupperware-logo</title><g id="Layer_2" data-name="Layer 2"><g id="Layer_1-2" data-name="Layer 1"><path class="cls-1" d="M467.94,16.74h16.77v9.63h.21c2.54-7,8.43-10.7,15.86-10.7a7.31,7.31,0,0,1,2.62.43V32.55h-5.16c-8.54,0-13,6.14-13,13V71.69H467.94Zm53,31.79c.3,7.52,4.46,12.5,11.79,12.5,4.16,0,8.23-2,9.86-6h16.16c-3.16,12.7-14.44,18.2-26.23,18.2-17.18,0-28.87-10.8-28.87-29.21,0-16.84,12.92-28.92,28.47-28.92,18.9,0,28.36,14.83,27.55,33.46Zm21.44-10.06c-.3-6.14-4.47-11.21-10.26-11.21-6.11,0-10.17,4.54-11.18,11.21ZM412,33.6c.3-7.2,3.55-11.86,8.23-14.71S431,15.07,437,15.07c12.5,0,24.61,2.86,24.61,18.42V71.62H445.41s0-3.4-.15-5.19c-4.47,4.88-11.08,6.77-17.38,6.77-10.06,0-18-5.29-18-16.63,0-17.89,18.7-16.51,30.7-19,2.95-.64,4.58-1.69,4.58-5.08,0-4.13-4.78-5.73-8.34-5.73-4.78,0-7.82,2.23-8.64,6.89Zm22.36,28.48c8.23,0,11-4.86,10.57-16.19-2.43,1.58-6.91,1.9-10.66,3s-7.12,2.65-7.12,7,3.35,6.24,7.21,6.24m-38.07,9.54H378.83l-8.34-36.53h-.2l-8.24,36.53H344.57l-16.48-55h17.49l8.85,35.57h.2l7.52-35.57h16.47l7.72,35.46h.21l8.63-35.46h17.59Zm-105.86-55h16.77V26.3h.21c2.53-7,8.43-10.7,15.85-10.7a7.78,7.78,0,0,1,2.63.42V32.47l-5.17,0c-8.54,0-13,6.13-13,13V71.62H290.45ZM247.89,48.53c.31,7.52,4.46,12.5,11.79,12.5,4.17,0,8.23-2,9.86-6H285.7c-3.16,12.7-14.44,18.2-26.22,18.2-17.18,0-28.87-10.8-28.87-29.21,0-16.84,12.91-28.92,28.46-28.92,18.91,0,28.36,14.83,27.55,33.46Zm21.45-10.06c-.3-6.14-4.48-11.21-10.27-11.21-6.1,0-10.15,4.54-11.18,11.21ZM172.68,16.66h16.47V23h.21a16.65,16.65,0,0,1,14.53-7.94c16.57,0,23.58,14.83,23.58,30.28,0,14.3-7.31,27.85-22.26,27.85-6.5,0-11.48-2.54-15.05-7.51H190V87.56H172.68Zm16.68,26.9c0,9.63,2.64,15.87,10.46,15.87s10.38-8.36,10.38-15.87c0-7-2.64-14.73-10.27-14.73-4.68,0-10.57,3.4-10.57,14.73m-75.12-26.9H130.7V23h.21a16.69,16.69,0,0,1,14.54-7.94C162,15.07,169,29.9,169,45.35c0,14.3-7.33,27.85-22.27,27.85-6.51,0-11.49-2.54-15.05-7.51h-.19V87.56H114.24Zm16.67,26.9c0,9.63,2.65,15.87,10.47,15.87s10.38-8.36,10.38-15.87c0-7-2.65-14.73-10.27-14.73-4.68,0-10.58,3.4-10.58,14.73M108,71.62H91.17V64.1H91A19.28,19.28,0,0,1,74.9,73.2c-15.14,0-19.52-9.1-19.52-23.5v-33H72.67V48.53c0,7.31,3,9.85,8.54,9.85,3.76,0,9.45-2.54,9.45-12.28V16.66H108ZM55.54,16.84h-18V71.69H18.61V16.84H0V0H55.54Z"/><path class="cls-1" d="M554.73,5.89A5.08,5.08,0,1,1,559.81,11a5.07,5.07,0,0,1-5.08-5.08m5.08,5.82A5.83,5.83,0,1,0,554,5.89a5.82,5.82,0,0,0,5.83,5.82m-1.24-6.14h1c.81,0,1.54,0,1.54-1s-.66-.89-1.28-.89h-1.22ZM557.63,3h2.31c1.4,0,2.07.54,2.07,1.69a1.52,1.52,0,0,1-1.55,1.61l1.69,2.61h-1l-1.62-2.54h-.95V8.88h-.94Z"/></g></g></svg>